<svg xmlns="http://www.w3.org/2000/svg" xmlns:xlink="http://www.w3.org/1999/xlink" width="500" zoomAndPan="magnify" viewBox="0 0 375 374.999991" height="500" preserveAspectRatio="xMidYMid meet" version="1.0"><defs><g/></defs><rect x="-37.5" width="450" fill="#ffffff" y="-37.499999" height="449.999989" fill-opacity="1"/><rect x="-37.5" width="450" fill="#ffffff" y="-37.499999" height="449.999989" fill-opacity="1"/><path fill="#060644" d="M 224.449219 190.734375 C 226.96875 186.375 225.472656 180.796875 221.109375 178.277344 C 216.746094 175.757812 211.167969 177.253906 208.652344 181.617188 C 208.152344 182.480469 207.808594 183.394531 207.617188 184.320312 L 195.675781 184.320312 C 195.277344 182.417969 194.273438 180.652344 192.75 179.324219 L 198.714844 168.992188 C 202.757812 170.375 207.34375 168.757812 209.5625 164.917969 C 212.078125 160.558594 210.585938 154.980469 206.222656 152.460938 C 203.753906 151.035156 200.898438 150.894531 198.425781 151.832031 L 192.53125 141.621094 C 193.371094 140.941406 194.105469 140.09375 194.675781 139.101562 C 197.195312 134.742188 195.703125 129.164062 191.339844 126.644531 C 186.976562 124.125 181.398438 125.621094 178.878906 129.984375 C 176.363281 134.34375 177.855469 139.921875 182.21875 142.441406 C 184.488281 143.75 187.085938 143.976562 189.414062 143.273438 L 195.433594 153.699219 C 194.789062 154.296875 194.226562 155 193.765625 155.800781 C 193.234375 156.71875 192.882812 157.691406 192.695312 158.679688 L 180.824219 158.679688 C 180.347656 156.164062 178.816406 153.859375 176.421875 152.476562 C 172.0625 149.960938 166.484375 151.453125 163.964844 155.816406 C 161.75 159.65625 162.640625 164.4375 165.859375 167.246094 L 159.894531 177.578125 C 155.851562 176.191406 151.265625 177.808594 149.050781 181.648438 C 146.53125 186.011719 148.027344 191.589844 152.390625 194.109375 C 156.75 196.628906 162.328125 195.132812 164.847656 190.769531 C 167.0625 186.929688 166.171875 182.148438 162.953125 179.339844 L 168.917969 169.007812 C 170.882812 169.683594 172.976562 169.644531 174.863281 168.988281 L 180.800781 179.273438 C 180.042969 179.925781 179.378906 180.714844 178.851562 181.632812 C 176.332031 185.996094 177.824219 191.574219 182.1875 194.089844 C 186.550781 196.609375 192.128906 195.113281 194.648438 190.753906 C 195.183594 189.824219 195.535156 188.84375 195.71875 187.847656 L 207.585938 187.847656 C 208.058594 190.375 209.585938 192.6875 211.988281 194.074219 C 216.351562 196.589844 221.929688 195.097656 224.449219 190.734375 Z M 192.734375 162.207031 C 193.128906 164.117188 194.132812 165.894531 195.660156 167.226562 L 189.695312 177.558594 C 187.773438 176.902344 185.730469 176.921875 183.875 177.539062 L 177.910156 167.207031 C 178.625 166.570312 179.257812 165.8125 179.761719 164.9375 C 180.265625 164.0625 180.609375 163.144531 180.800781 162.207031 Z M 192.734375 162.207031 " fill-opacity="1" fill-rule="nonzero"/><g fill="#1c1d33" fill-opacity="1"><g transform="translate(82.005133, 232.5049)"><g><path d="M 7.1875 0 L 1.796875 0 L 1.796875 -22.9375 L 12.625 -22.9375 C 14.03125 -22.9375 15.273438 -22.707031 16.359375 -22.25 C 17.453125 -21.789062 18.3125 -21.050781 18.9375 -20.03125 C 19.5625 -19.019531 19.875 -17.679688 19.875 -16.015625 C 19.875 -14.515625 19.5625 -13.226562 18.9375 -12.15625 C 18.3125 -11.082031 17.453125 -10.257812 16.359375 -9.6875 C 15.273438 -9.125 14.03125 -8.84375 12.625 -8.84375 L 7.1875 -8.84375 Z M 7.1875 -18.125 L 7.1875 -13.5 L 11.875 -13.5 C 13.65625 -13.5 14.546875 -14.28125 14.546875 -15.84375 C 14.546875 -17.363281 13.65625 -18.125 11.875 -18.125 Z M 7.1875 -18.125 "/></g></g></g><g fill="#1c1d33" fill-opacity="1"><g transform="translate(104.044205, 232.5049)"><g><path d="M 5.765625 0 L 0.0625 0 L 7.90625 -22.9375 L 13.734375 -22.9375 L 21.578125 0 L 15.875 0 L 14.640625 -4.125 L 7 -4.125 Z M 10.828125 -16.953125 L 8.421875 -8.78125 L 13.234375 -8.78125 Z M 10.828125 -16.953125 "/></g></g></g><g fill="#1c1d33" fill-opacity="1"><g transform="translate(127.195748, 232.5049)"><g><path d="M 13.625 0 L 7.96875 0 L 7.96875 -9.109375 L -0.234375 -22.9375 L 6.046875 -22.9375 L 10.796875 -14.3125 L 15.546875 -22.9375 L 21.828125 -22.9375 L 13.625 -9.109375 Z M 13.625 0 "/></g></g></g><g fill="#1c1d33" fill-opacity="1"><g transform="translate(154.429857, 232.5049)"><g><path d="M 10.1875 0.296875 C 8.75 0.296875 7.394531 0.0664062 6.125 -0.390625 C 4.863281 -0.847656 3.804688 -1.578125 2.953125 -2.578125 C 2.109375 -3.585938 1.554688 -4.894531 1.296875 -6.5 L 3.390625 -6.5 C 3.617188 -5.25 4.085938 -4.265625 4.796875 -3.546875 C 5.503906 -2.828125 6.347656 -2.316406 7.328125 -2.015625 C 8.316406 -1.710938 9.320312 -1.5625 10.34375 -1.5625 C 12.164062 -1.5625 13.578125 -1.984375 14.578125 -2.828125 C 15.578125 -3.671875 16.078125 -4.832031 16.078125 -6.3125 C 16.078125 -7.175781 15.894531 -7.882812 15.53125 -8.4375 C 15.175781 -8.988281 14.6875 -9.429688 14.0625 -9.765625 C 13.445312 -10.109375 12.753906 -10.382812 11.984375 -10.59375 C 11.210938 -10.800781 10.40625 -11 9.5625 -11.1875 C 8.65625 -11.382812 7.765625 -11.601562 6.890625 -11.84375 C 6.023438 -12.082031 5.234375 -12.40625 4.515625 -12.8125 C 3.804688 -13.226562 3.238281 -13.785156 2.8125 -14.484375 C 2.394531 -15.191406 2.1875 -16.097656 2.1875 -17.203125 C 2.1875 -18.441406 2.515625 -19.507812 3.171875 -20.40625 C 3.828125 -21.3125 4.710938 -22.007812 5.828125 -22.5 C 6.953125 -22.988281 8.226562 -23.234375 9.65625 -23.234375 C 11.65625 -23.234375 13.351562 -22.738281 14.75 -21.75 C 16.15625 -20.757812 17.039062 -19.140625 17.40625 -16.890625 L 15.421875 -16.890625 C 15.097656 -18.535156 14.421875 -19.691406 13.390625 -20.359375 C 12.359375 -21.035156 11.101562 -21.375 9.625 -21.375 C 8.0625 -21.375 6.773438 -21.007812 5.765625 -20.28125 C 4.765625 -19.5625 4.265625 -18.582031 4.265625 -17.34375 C 4.265625 -16.34375 4.554688 -15.566406 5.140625 -15.015625 C 5.722656 -14.460938 6.476562 -14.046875 7.40625 -13.765625 C 8.34375 -13.484375 9.332031 -13.222656 10.375 -12.984375 C 11.3125 -12.785156 12.234375 -12.554688 13.140625 -12.296875 C 14.054688 -12.035156 14.894531 -11.671875 15.65625 -11.203125 C 16.425781 -10.742188 17.035156 -10.132812 17.484375 -9.375 C 17.929688 -8.613281 18.15625 -7.625 18.15625 -6.40625 C 18.15625 -4.394531 17.476562 -2.773438 16.125 -1.546875 C 14.769531 -0.316406 12.789062 0.296875 10.1875 0.296875 Z M 10.1875 0.296875 "/></g></g></g><g fill="#1c1d33" fill-opacity="1"><g transform="translate(176.168336, 232.5049)"><g><path d="M 11.03125 0 L 8.875 0 L 8.875 -8.78125 L 0.234375 -22.9375 L 2.640625 -22.9375 L 9.953125 -10.796875 L 17.25 -22.9375 L 19.65625 -22.9375 L 11.03125 -8.78125 Z M 11.03125 0 "/></g></g></g><g fill="#1c1d33" fill-opacity="1"><g transform="translate(198.177426, 232.5049)"><g><path d="M 10.1875 0.296875 C 8.75 0.296875 7.394531 0.0664062 6.125 -0.390625 C 4.863281 -0.847656 3.804688 -1.578125 2.953125 -2.578125 C 2.109375 -3.585938 1.554688 -4.894531 1.296875 -6.5 L 3.390625 -6.5 C 3.617188 -5.25 4.085938 -4.265625 4.796875 -3.546875 C 5.503906 -2.828125 6.347656 -2.316406 7.328125 -2.015625 C 8.316406 -1.710938 9.320312 -1.5625 10.34375 -1.5625 C 12.164062 -1.5625 13.578125 -1.984375 14.578125 -2.828125 C 15.578125 -3.671875 16.078125 -4.832031 16.078125 -6.3125 C 16.078125 -7.175781 15.894531 -7.882812 15.53125 -8.4375 C 15.175781 -8.988281 14.6875 -9.429688 14.0625 -9.765625 C 13.445312 -10.109375 12.753906 -10.382812 11.984375 -10.59375 C 11.210938 -10.800781 10.40625 -11 9.5625 -11.1875 C 8.65625 -11.382812 7.765625 -11.601562 6.890625 -11.84375 C 6.023438 -12.082031 5.234375 -12.40625 4.515625 -12.8125 C 3.804688 -13.226562 3.238281 -13.785156 2.8125 -14.484375 C 2.394531 -15.191406 2.1875 -16.097656 2.1875 -17.203125 C 2.1875 -18.441406 2.515625 -19.507812 3.171875 -20.40625 C 3.828125 -21.3125 4.710938 -22.007812 5.828125 -22.5 C 6.953125 -22.988281 8.226562 -23.234375 9.65625 -23.234375 C 11.65625 -23.234375 13.351562 -22.738281 14.75 -21.75 C 16.15625 -20.757812 17.039062 -19.140625 17.40625 -16.890625 L 15.421875 -16.890625 C 15.097656 -18.535156 14.421875 -19.691406 13.390625 -20.359375 C 12.359375 -21.035156 11.101562 -21.375 9.625 -21.375 C 8.0625 -21.375 6.773438 -21.007812 5.765625 -20.28125 C 4.765625 -19.5625 4.265625 -18.582031 4.265625 -17.34375 C 4.265625 -16.34375 4.554688 -15.566406 5.140625 -15.015625 C 5.722656 -14.460938 6.476562 -14.046875 7.40625 -13.765625 C 8.34375 -13.484375 9.332031 -13.222656 10.375 -12.984375 C 11.3125 -12.785156 12.234375 -12.554688 13.140625 -12.296875 C 14.054688 -12.035156 14.894531 -11.671875 15.65625 -11.203125 C 16.425781 -10.742188 17.035156 -10.132812 17.484375 -9.375 C 17.929688 -8.613281 18.15625 -7.625 18.15625 -6.40625 C 18.15625 -4.394531 17.476562 -2.773438 16.125 -1.546875 C 14.769531 -0.316406 12.789062 0.296875 10.1875 0.296875 Z M 10.1875 0.296875 "/></g></g></g><g fill="#1c1d33" fill-opacity="1"><g transform="translate(219.915908, 232.5049)"><g><path d="M 10.546875 0 L 8.484375 0 L 8.484375 -21.078125 L 0.421875 -21.078125 L 0.421875 -22.9375 L 18.640625 -22.9375 L 18.640625 -21.078125 L 10.546875 -21.078125 Z M 10.546875 0 "/></g></g></g><g fill="#1c1d33" fill-opacity="1"><g transform="translate(241.083123, 232.5049)"><g><path d="M 16.984375 0 L 2.375 0 L 2.375 -22.9375 L 16.984375 -22.9375 L 16.984375 -21.078125 L 4.453125 -21.078125 L 4.453125 -12.453125 L 15.453125 -12.453125 L 15.453125 -10.578125 L 4.453125 -10.578125 L 4.453125 -1.859375 L 16.984375 -1.859375 Z M 16.984375 0 "/></g></g></g><g fill="#1c1d33" fill-opacity="1"><g transform="translate(261.498667, 232.5049)"><g><path d="M 4.453125 0 L 2.375 0 L 2.375 -22.9375 L 5.71875 -22.9375 L 13.171875 -2.109375 L 20.625 -22.9375 L 23.953125 -22.9375 L 23.953125 0 L 21.890625 0 L 21.890625 -20.75 L 14.453125 0 L 11.875 0 L 4.453125 -20.796875 Z M 4.453125 0 "/></g></g></g></svg>